<svg height='300px' width='300px'  fill="#000000" xmlns:dc="http://purl.org/dc/elements/1.1/" xmlns:cc="http://creativecommons.org/ns#" xmlns:rdf="http://www.w3.org/1999/02/22-rdf-syntax-ns#" xmlns:svg="http://www.w3.org/2000/svg" xmlns="http://www.w3.org/2000/svg" xmlns:sodipodi="http://sodipodi.sourceforge.net/DTD/sodipodi-0.dtd" xmlns:inkscape="http://www.inkscape.org/namespaces/inkscape" viewBox="0 0 8.4666667 8.4666669" version="1.1" x="0px" y="0px"><svg:g><svg:path style="color:#000000;font-style:normal;font-variant:normal;font-weight:normal;font-stretch:normal;font-size:medium;line-height:normal;font-family:sans-serif;font-variant-ligatures:normal;font-variant-position:normal;font-variant-caps:normal;font-variant-numeric:normal;font-variant-alternates:normal;font-feature-settings:normal;text-indent:0;text-align:start;text-decoration:none;text-decoration-line:none;text-decoration-style:solid;text-decoration-color:#000000;letter-spacing:normal;word-spacing:normal;text-transform:none;writing-mode:lr-tb;direction:ltr;text-orientation:mixed;dominant-baseline:auto;baseline-shift:baseline;text-anchor:start;white-space:normal;shape-padding:0;clip-rule:nonzero;display:inline;overflow:visible;visibility:visible;opacity:1;isolation:auto;mix-blend-mode:normal;color-interpolation:sRGB;color-interpolation-filters:linearRGB;solid-color:#000000;solid-opacity:1;vector-effect:none;fill:#000000;fill-opacity:1;fill-rule:nonzero;stroke:none;stroke-width:0.5291667;stroke-linecap:round;stroke-linejoin:round;stroke-miterlimit:4;stroke-dasharray:none;stroke-dashoffset:0;stroke-opacity:1;paint-order:stroke fill markers;color-rendering:auto;image-rendering:auto;shape-rendering:auto;text-rendering:auto;enable-background:accumulate" d="M 3.801577,-1.1037137e-7 C 3.1802057,-1.1037137e-7 2.670896,0.50775948 2.670896,1.1291299 V 1.7947224 H 1.5123121 a 0.26460984,0.26460984 0 0 0 -0.025323,0 0.26460984,0.26460984 0 0 0 -0.2382282,0.2423624 L 0.71959394,8.1798624 A 0.26460984,0.26460984 0 0 0 0.98314539,8.4666665 H 7.4830053 A 0.26460984,0.26460984 0 0 0 7.7470727,8.1798624 L 7.2173901,2.0370848 A 0.26460984,0.26460984 0 0 0 6.9538387,1.7947224 H 5.7957706 V 1.1291299 C 5.7957706,0.50775948 5.2880114,-1.1037137e-7 4.6666401,-1.1037137e-7 Z m 0,0.52916666037137 h 0.8650631 c 0.3373649,0 0.5999639,0.262598 0.5999639,0.59996335 V 1.7947224 H 3.2000627 V 1.1291299 c 0,-0.33736535 0.2641467,-0.59996335 0.6015143,-0.59996335 z M 1.754673,2.3244058 h 0.916223 v 0.784965 a 0.26464799,0.26464799 0 0 0 0.5291667,0 V 2.3244058 H 5.266604 v 0.784965 a 0.2646485,0.2646485 0 0 0 0.5291666,0 v -0.784965 h 0.916223 l 0.4821396,5.613094 H 1.2725308 Z"></svg:path></svg:g></svg>