<svg height='300px' width='300px'  fill="#000000" xmlns="http://www.w3.org/2000/svg" xmlns:xlink="http://www.w3.org/1999/xlink" xmlns:sketch="http://www.bohemiancoding.com/sketch/ns" viewBox="0 0 30 30" version="1.1" x="0px" y="0px"><title>Artboard 1 Copy</title><desc>Created with Sketch.</desc><g stroke="none" stroke-width="1" fill="none" fill-rule="evenodd" sketch:type="MSPage"><g sketch:type="MSLayerGroup" fill="#000000"><path d="M1.95948273,21.9854124 L14.3994747,27.996043 C14.9999996,28.2103279 14.9999996,28.2114265 15.5999756,27.9960424 L28.0405183,21.9854124 L28.0405182,10.2872608 L15.8499756,16.0309605 L15,16.4267648 L14.1500244,16.0172979 L1.95948273,10.2872608 L1.95948273,21.9854124 Z M30.0015421,7.21573455 L30.0015421,23.1671295 L16.155971,29.7189576 C15.8564983,29.8972222 15.3060303,30.0000001 15.0200196,30.0000001 C14.7340088,30.0000001 14.2000122,29.8999939 13.8491211,29.7200012 L0.00154214311,23.1671295 L0.00154211081,7.21573455 L15.0200195,14.3007862 L30.0015421,7.21573455 Z M15,22.3114669 L13.0610155,24.2407123 C12.6504134,24.6492519 12.6504134,24.6492519 12.5327521,24.7663223 C12.1766126,25.120673 11.6055178,25.1142425 11.2571763,24.7519593 C10.9088347,24.3896762 10.9151562,23.8087297 11.2712957,23.454379 C11.3889571,23.3373086 11.3889571,23.3373086 11.7995591,22.928769 L13.7099887,21.0279351 L11.2712957,18.6014911 C10.9151562,18.2471405 10.9088347,17.666194 11.2571763,17.3039108 C11.6055178,16.9416277 12.1766126,16.9351971 12.5327521,17.2895478 L15,19.7444032 L17.4672479,17.2895478 C17.8233874,16.9351971 18.3944822,16.9416277 18.7428237,17.3039108 C19.0911653,17.666194 19.0848438,18.2471405 18.7287043,18.6014911 L16.2900113,21.0279351 L18.2004409,22.928769 C18.6110429,23.3373086 18.6110429,23.3373086 18.7287043,23.454379 C19.0848438,23.8087297 19.0911653,24.3896762 18.7428237,24.7519593 C18.3944822,25.1142425 17.8233874,25.120673 17.4672479,24.7663223 C17.3495866,24.6492519 17.3495866,24.6492519 16.9389845,24.2407123 L15,22.3114669 L15,22.3114669 Z M13.1199951,0.45897924 L0,7.21573458 L2.21081543,8.25879494 L14.0800171,2.12473559 C14.8499756,1.83999634 15.1617273,1.8434756 15.9899902,2.10685797 L27.7931519,8.25879494 L30,7.21573458 L16.9199829,0.459991455 C15.5000593,-0.153322183 14.5393066,-0.149993896 13.1199951,0.45897924 Z" sketch:type="MSShapeGroup"></path></g></g></svg>